<?xml version="1.0" encoding="utf-8"?>
<!-- Generator: Adobe Illustrator 15.1.0, SVG Export Plug-In . SVG Version: 6.00 Build 0)  -->
<!DOCTYPE svg PUBLIC "-//W3C//DTD SVG 1.1//EN" "http://www.w3.org/Graphics/SVG/1.1/DTD/svg11.dtd">
<svg version="1.1" id="Layer_1" xmlns="http://www.w3.org/2000/svg" xmlns:xlink="http://www.w3.org/1999/xlink" x="0px" y="0px"
	 width="54px" height="43px" viewBox="0 0 53 43" enable-background="new 0 0 53 43" xml:space="preserve">
<path class="path"  stroke="#231F20" stroke-miterlimit="1" stroke-width="0.75px" fill-rule="evenodd" clip-rule="evenodd" d="M48.8,28.5c-0.4,2.8-0.7,6.5-2.7,8.7c-0.7,0.8-6.3,4-6,1.5
	c1-7.8,1.6-15.5,2.1-23.4c0.1-3.3,0.3-6.6,0.4-9.8c0-0.6-0.3-1.9,0.6-2c1.6,0.5,3.5,1,4.5,2.4c2.1,2.7,1.8,6.8,1.9,10.1
	C49.6,20.2,49.4,24.4,48.8,28.5L48.8,28.5z M38,3.5c-1.1,4.1-2.4,9.5-3.6,13.6c-0.9,3.3-2,7.5-6,8c-0.6,0.1-1.2,0.1-1.9,0.1
	c-0.6,0-1.3-0.1-1.9-0.1c-4-0.4-5.1-4.7-6-8C17.4,13,16.1,7.6,15,3.5c-0.2-0.7,0.1-0.5,1.6-0.7c2.6-0.4,6.5-0.4,9.9-0.4
	c3.4,0,7.3,0,9.9,0.4C37.9,3,38.2,2.8,38,3.5L38,3.5z M33.7,40.3c-0.3,0.1-1.4,0.1-2.6,0.1c-1.5,0-3,0-4.6,0c-1.5,0-3,0-4.6,0
	c-1.2,0-2.3,0-2.6-0.1s-0.7-0.1-0.6-0.4c0.1-0.4,1.6-5.1,1.6-5.1c1-3.1,1-3.3,3.5-3.8c0.8-0.2,1.8-0.3,2.7-0.3
	c0.9,0,1.9,0.1,2.7,0.3c2.5,0.5,2.5,0.7,3.5,3.8c0,0,1.5,4.7,1.6,5.1C34.3,40.2,34,40.2,33.7,40.3L33.7,40.3z M6.8,37.2
	c-2-2.2-2.3-5.9-2.7-8.7c-0.6-4.1-0.8-8.3-0.7-12.4c0-3.2-0.2-7.4,1.9-10.1c1.1-1.4,2.9-1.9,4.5-2.4c0.9,0,0.5,1.4,0.6,2
	c0,3.3,0.2,6.6,0.4,9.8c0.5,7.8,1,15.6,2.1,23.4C13.1,41.2,7.6,38,6.8,37.2L6.8,37.2z M52.9,12.6c-0.2-3.1-0.6-6.4-2.9-8.7
	c-2.1-2.1-5.1-2.6-7.8-3C36.9,0.2,31.8,0,26.5,0c-5.3,0-10.4,0.2-15.7,0.9c-2.8,0.4-5.8,1-7.8,3c-2.3,2.3-2.7,5.6-2.9,8.7
	c-0.2,3.5,0,7.1,0.2,10.6c0.2,3.5,0.6,7,1.5,10.4c0.4,1.6,0.9,3.2,1.8,4.5c0.9,1.3,2.1,2.2,3.6,2.9c3,1.4,6.5,1.5,9.7,1.7
	c3.2,0.2,6.4,0.3,9.6,0.3c3.2,0,6.4-0.1,9.6-0.3c3.2-0.2,6.7-0.3,9.7-1.7c1.4-0.6,2.7-1.6,3.6-2.9c0.9-1.4,1.4-2.9,1.8-4.5
	c0.9-3.4,1.2-6.9,1.5-10.4C52.9,19.7,53.1,16.1,52.9,12.6L52.9,12.6z"/>
	<style>
	.path {
		stroke-dasharray: 350;
    	stroke-dashoffset: 350;
		fill: #fff;
		animation: dash 2.5s linear forwards;
	}
	@keyframes dash {
		80% {
			stroke-dashoffset: 0;
			fill: #fff;
			stroke: #231F20;
		}
		100%{
			stroke-dashoffset: 0;
			fill: #CC0000;
			stroke: #CC0000;
		}
	}
	</style>
</svg>
